<svg width="1024" height="1024" viewBox="0 0 1024 1024" fill="none" xmlns="http://www.w3.org/2000/svg">
<path d="M638.528 399.603C646.621 398.971 653.621 392.836 659.893 388.339C663.333 385.897 666.604 383.226 669.685 380.343C672.057 377.62 674.254 374.748 676.26 371.745C676.452 371.987 678.384 374.891 678.834 374.314C679.284 373.737 677.494 371.568 677.382 371.077C676.988 369.327 678.207 368.472 679.132 367.112C680.9 363.163 681.408 358.766 680.589 354.518C680.874 350.378 680.083 346.234 678.293 342.49C676.106 338.96 674.097 335.322 672.274 331.591C668.568 323.756 663.379 316.714 656.994 310.854C650.881 304.486 644.15 298.743 636.9 293.708C633.799 291.639 630.219 290.102 626.982 288.18C623.075 286.027 619.018 284.159 614.843 282.591C610.813 280.916 606.629 279.64 602.35 278.782C597.652 277.347 592.709 276.898 587.829 277.462C585.685 277.793 583.588 278.379 581.583 279.207C580.364 279.799 579.883 280.912 578.831 281.524C578.29 281.837 577.314 281.675 576.636 282.029C575.851 282.595 575.097 283.205 574.38 283.855C572.41 285.05 570.37 286.126 568.271 287.077C567.183 287.654 564.7 288.721 564.361 290.026C564.057 291.184 565.024 291.543 564.26 293.01C563.406 294.272 562.344 295.381 561.119 296.287C559.423 297.803 557.878 299.48 556.506 301.295C549.894 309.254 544.099 317.859 539.209 326.978C537.089 331.262 535.061 335.576 533.013 339.88C532.224 341.534 525.694 350.229 529.427 350.906C528.299 353.708 527.12 356.495 526.068 359.328C524.915 362.428 524.683 365.726 523.605 368.781C522.781 371.117 522.412 373.753 521.365 375.983C520.711 376.977 520.156 378.033 519.706 379.134C519.311 380.707 519.291 382.169 518.75 383.777C518.012 386.349 517.528 388.986 517.303 391.652C516.899 394.813 515.872 397.949 515.214 401.08C514.921 402.486 514.577 403.887 514.263 405.293C513.98 406.562 514.117 408.014 513.834 409.203C513.328 411.322 510.425 411.479 508.442 412.111C505.954 412.599 503.439 412.937 500.911 413.122C497.3 413.775 493.648 414.134 490.092 415.075C483.856 416.698 477.514 417.922 471.242 419.399C458.046 422.515 444.688 425.302 431.341 427.689C405.64 432.835 379.615 436.198 353.451 437.754C350.254 437.875 347.144 438.26 343.973 438.629C340.801 438.998 337.519 438.7 334.272 438.867C327.788 439.205 321.349 439.463 314.9 440.01C312.124 440.247 309.387 441.264 306.656 441.35C303.369 441.446 300.046 440.996 296.712 441.112C290.041 441.35 283.375 441.618 276.709 441.901C269.962 442.169 263.245 442.974 256.478 443.328C249.397 443.702 242.366 443.712 235.311 444.02C228.736 444.309 222.161 444.051 215.585 444.096C209.295 444.375 202.993 444.167 196.735 443.474C190.372 442.498 184.091 442.144 177.682 441.517C175.376 441.117 173.127 440.438 170.986 439.494C167.858 438.705 164.686 438.098 161.487 437.678C158.324 437.044 155.206 436.199 152.156 435.149C148.993 434.433 146.054 432.955 143.593 430.845C142.151 428.938 142.546 424.887 142.318 422.586C141.979 419.156 142.04 415.707 141.58 412.293C140.629 405.298 140.487 398.247 140.184 391.207C140.047 388.026 139.966 384.829 139.713 381.653C139.476 378.618 138.702 375.695 138.575 372.665C138.07 359.348 135.338 346.137 134.307 332.84C133.351 320.453 131.838 308.259 131.479 295.857C131.1 282.889 130.913 269.951 130.493 257.003C130.048 243.312 129.34 229.59 128.47 215.909C127.6 202.227 124.818 188.526 123.088 174.91C122.304 168.178 121.02 161.381 120.726 154.568C121.172 148.929 120.442 143.259 118.582 137.918C116.731 133.907 113.989 128.505 109.129 128.025C105.391 127.67 100.5 131.236 97.3594 133.057C95.3061 134.193 93.4565 135.663 91.8869 137.407C90.0104 139.607 89.2922 142.014 86.7785 143.653C85.1094 144.741 82.267 145.676 81.1087 147.36C79.9216 149.559 78.9478 151.865 78.2005 154.249C77.5018 155.512 77.0967 156.917 77.0153 158.358C76.9339 159.799 77.1782 161.24 77.7301 162.574C79.0856 165.523 80.8204 168.31 82.3631 171.173C85.3176 176.924 87.3001 183.124 88.2301 189.522C89.8567 196.148 90.7455 202.933 90.8804 209.753C90.6983 213.178 90.1268 216.576 90.0003 220.011C89.8739 223.445 90.0964 226.869 89.8132 230.288C89.3322 233.45 89.1628 236.652 89.3074 239.847C89.3421 240.697 89.5359 241.532 89.8789 242.311C90.6528 243.56 91.7503 243.322 92.8226 244.157C94.613 245.537 94.0162 248.051 94.0769 249.993C94.173 253.205 94.0769 256.3 93.9808 259.507C93.8746 262.876 93.9403 266.259 93.9808 269.623C93.9808 271.14 94.0213 272.627 94.0769 274.134C94.1325 275.641 93.6773 277.27 93.7836 278.59C94.0331 279.79 94.2222 281.002 94.35 282.222C94.35 283.638 94.3197 285.049 94.2995 286.465C94.259 289.778 94.5018 293.04 94.5119 296.368C94.4623 299.277 94.5789 302.187 94.8609 305.083C95.2402 308.34 94.8609 311.476 95.0025 314.738C95.306 321.718 95.923 328.652 96.5704 335.602C97.2127 342.47 97.3999 349.409 98.6239 356.202C99.6961 362.14 100.5 368.164 101.072 374.193C102.306 387.221 101.881 400.336 102.898 413.355C103.114 420.088 103.993 426.783 105.523 433.343C107.111 438.907 109.144 444.319 110.793 449.888C111.762 452.782 112.468 455.758 112.902 458.779C113.275 461.469 114.318 464.023 115.937 466.204C119.703 470.736 124.764 474.009 130.442 475.586C136.538 477.897 142.826 479.666 149.232 480.872C155.58 481.883 162.165 482.338 168.563 483.057C175.234 483.8 181.769 484.22 188.486 484.574C194.864 484.923 201.368 485.671 207.746 485.752C210.725 485.793 213.937 485.697 216.911 485.449C219.757 485.575 222.581 486.014 225.332 486.759C228.112 487.247 230.919 487.565 233.738 487.71C235.073 487.71 234.987 487.295 236.024 487.002C237.167 486.768 238.342 486.729 239.499 486.885C241.679 487.007 243.545 487.543 244.728 485.368C245.315 484.316 244.946 483.876 246.054 483.492C247.26 483.331 248.479 483.273 249.695 483.32C256.225 482.546 262.805 481.802 269.284 480.7C282.176 478.489 295.054 476.537 307.996 474.686C311.03 474.285 314.086 474.089 317.146 474.099C319.953 473.791 322.679 472.962 325.183 471.656C327.735 470.755 330.395 470.194 333.093 469.987C334.147 469.925 335.177 469.657 336.128 469.198C337.079 468.561 337.17 467.777 338.424 467.362C339.452 467.147 340.493 466.995 341.54 466.907C342.749 466.659 343.664 466.017 344.817 465.698C347.26 465.02 349.991 465.192 352.48 464.601C353.87 464.392 355.216 463.951 356.46 463.296C357.315 462.694 357.472 461.95 358.483 461.47C361.18 460.752 363.969 460.435 366.758 460.529C373.254 460.195 379.72 459.414 386.109 458.192C392.472 456.569 398.865 455.557 405.288 454.232C408.242 453.625 411.165 452.872 414.134 452.356C415.178 452.233 416.209 452.016 417.214 451.708C418.509 451.228 419.202 450.191 420.36 449.655C421.436 449.365 422.527 449.137 423.628 448.972C424.821 448.578 425.934 448.026 427.168 447.692C430.405 446.807 433.743 446.089 437.036 445.401C438.553 445.088 440.071 444.895 441.588 444.587C442.994 444.294 443.55 443.54 444.774 443.07C445.717 442.894 446.68 442.862 447.632 442.974C449.232 442.735 450.812 442.373 452.356 441.891C458.289 440.596 464.429 439.701 470.261 438.042C473.376 437.157 476.461 436.272 479.638 435.609C481.56 435.21 485.707 435.23 487.224 433.875C487.933 433.242 487.922 432.433 488.706 431.74C489.714 430.974 490.924 430.52 492.186 430.435C493.87 430.319 494.255 430.688 494.25 432.13C494.25 432.281 493.208 434.76 494.584 434.441C495.261 434.289 495.347 430.268 495.767 429.621C496.344 428.751 498.751 427.168 499.12 429.115C499.292 430.005 498.311 431.776 498.205 432.772C498.086 433.779 498.024 434.792 498.018 435.807C498.048 438.386 499.308 440.359 498.842 443.085C498.782 443.454 497.209 450.166 499.242 448.997C499.28 448.349 499.28 447.699 499.242 447.05C499.461 445.476 499.799 443.92 500.253 442.397C500.987 439.499 501.649 436.672 502.312 433.773C502.838 431.27 503.789 428.875 505.124 426.692C506.94 429.35 507.859 432.519 507.749 435.736C506.933 439.974 506.342 444.252 505.979 448.552C505.625 452.978 505.291 457.408 504.851 461.829C504.852 463.844 504.651 465.853 504.249 467.828C503.448 469.45 502.978 471.216 502.868 473.022C502.934 477.134 502.732 481.251 502.797 485.368C502.828 487.229 502.539 489.05 502.55 490.886C502.799 493.36 502.746 495.855 502.393 498.316C501.126 506.737 500.631 515.256 500.916 523.767C500.795 527.717 500.319 531.728 500.36 535.678C500.383 536.494 500.53 537.302 500.795 538.075C500.562 537.236 501.437 539.041 501.447 538.895C501.447 539.269 501.032 539.335 501.007 539.542C500.776 540.256 500.59 540.984 500.451 541.722C500.269 545.768 500.203 549.86 500.344 553.921C500.506 558.59 501.391 563.486 501.154 568.134C500.728 570.075 500.444 572.044 500.304 574.026C500.604 575.645 500.728 577.292 500.673 578.937C500.544 584.07 500.784 589.205 501.391 594.303C501.437 603.364 501.984 612.416 503.03 621.418C503.298 622.996 503.951 624.407 504.178 625.97C504.441 627.775 504.3 629.677 504.451 631.493C504.588 633.187 505.291 633.405 505.832 634.775C505.956 635.612 505.99 636.46 505.933 637.304C506.154 638.745 506.451 640.173 506.823 641.583C507.181 643.144 507.122 644.771 506.651 646.302C506.146 648.325 507.016 648.522 507.289 650.348C507.425 651.254 506.783 652.184 506.849 653.1C506.904 653.899 507.461 654.475 507.441 655.178C507.42 655.881 506.935 656.423 506.844 657.06C506.596 658.668 507.274 659.118 507.956 660.413C508.685 661.655 509.1 663.056 509.165 664.495C509.024 665.066 507.562 665.79 507.582 666.341C507.582 666.65 509.13 668.04 509.398 668.678C509.797 669.608 510.121 669.568 510.101 670.701C509.868 671.095 509.646 671.493 509.433 671.894C509.374 672.09 509.394 672.3 509.489 672.481C509.583 672.661 509.745 672.798 509.939 672.86C510.12 673.146 510.263 673.454 510.364 673.776C510.364 673.902 509.858 675.177 509.858 675.501C509.858 676.76 510.162 678.161 510.187 679.496C510.425 681.358 510.92 683.178 511.659 684.903C512.25 687.012 512.427 689.389 512.812 691.564C516.074 709.772 516.681 728.552 518.517 746.947C518.826 750.451 519.333 753.935 520.034 757.381C520.247 758.393 520.176 759.404 520.388 760.416C520.586 761.326 521.284 762.12 521.329 763.066C521.329 763.547 520.722 763.931 520.687 764.295C520.732 765.581 520.941 766.856 521.309 768.089C521.798 772.117 522.067 776.17 522.113 780.227C522.452 785.058 522.953 789.873 523.322 794.703C524.055 804.404 524.92 814.099 525.765 823.79C526.2 828.732 526.908 833.739 527.034 838.706C526.994 839.434 527.004 840.164 527.065 840.891C527.216 841.781 527.899 842.641 527.97 843.475C528.142 845.574 527.697 847.966 527.823 850.162C527.982 852.346 528.343 854.512 528.901 856.63C529.244 858.915 529.344 861.229 529.199 863.534C529.29 865.365 530.873 867.075 530.818 868.86C530.767 870.539 529.659 872.35 529.614 874.191C529.568 876.032 529.644 876.958 531.667 877.013C534.06 877.084 533.625 876.634 534.095 879.31C534.449 881.333 534.54 883.406 534.904 885.409C535.162 886.846 536.761 890.872 535.456 892.05C535.623 891.898 534.95 891.14 534.611 891.408C534.272 891.676 534.267 893.067 534.257 893.431C534.186 895.616 535 895.828 536.563 894.756C537.464 894.139 537.706 893.35 538.951 893.087C539.669 892.935 541.287 893.512 541.778 893.193C542.987 892.404 541.176 892.328 541.505 891.13C541.859 889.815 543.917 890.209 544.818 889.703C546.294 888.869 545.657 888.216 546.532 886.795C547.463 885.278 548.601 885.414 550.24 885.687C552.03 885.986 552.263 886.026 553.522 884.58C554.125 884.085 554.536 883.395 554.683 882.629C554.831 881.864 554.707 881.07 554.331 880.387C553.542 878.44 552.237 876.7 551.428 874.773C550.132 870.105 549.357 865.308 549.117 860.469C548.995 859.741 549.056 854.698 547.736 855.022C546.79 855.25 547.453 858.745 546.001 857.364C545.535 855.514 545.302 853.612 545.308 851.704C544.992 849.658 545.098 847.568 545.622 845.564C546.224 847.516 546.082 849.539 546.507 851.502C546.805 852.888 548.252 854.779 548.763 852.786C548.902 851.002 548.743 849.208 548.292 847.476C547.933 845.959 546.719 844.896 547.099 843.369C547.25 842.742 547.974 842.357 548.11 841.776C548.149 840.929 547.961 840.087 547.564 839.338C546.638 837.291 546.241 835.044 546.411 832.803C546.977 830.862 547.251 828.847 547.225 826.825C546.682 824.403 546.394 821.932 546.365 819.451C546.45 817.626 546.103 815.806 545.354 814.14C545.212 811.97 545.241 809.791 545.44 807.625C545.232 805.663 544.216 803.979 544.044 802.021C543.826 799.614 544.018 797.176 543.831 794.763C543.649 792.442 544.13 790.211 544.044 787.905C543.584 785.585 543.357 783.225 543.366 780.86C543.585 776.614 543.354 772.357 542.678 768.159C542.334 763.041 542.729 757.892 542.253 752.789C541.783 747.802 541.363 742.759 541.125 737.757C540.888 732.755 540.271 727.874 539.962 722.917C539.831 720.793 539.906 718.654 539.78 716.529C539.709 715.376 539.426 714.319 539.249 713.191C539.247 712.082 539.179 710.974 539.047 709.873C538.865 709.266 538.227 708.801 538.172 708.199C538.101 707.4 538.86 706.596 538.839 705.67C538.76 704.087 538.567 702.512 538.263 700.957C537.418 696.405 538.672 691.483 537.666 686.825C537.193 685.058 536.87 683.255 536.7 681.433C536.553 679.122 536.867 676.553 536.604 674.292C536.422 672.724 535.511 671.52 535.385 669.866C535.203 667.535 535.061 665.188 534.904 662.861C534.788 661.081 535.041 659.407 535.031 657.682C535.031 656.716 534.606 656.382 534.368 655.573C534.123 654.917 534.07 654.204 534.216 653.519C534.168 649.323 533.83 645.136 533.205 640.986C532.998 638.746 533.407 636.5 533.114 634.285C532.998 633.4 532.608 632.53 532.502 631.66C532.365 630.451 532.826 629.348 532.765 628.119C532.654 626 532.704 623.871 532.613 621.736C532.522 619.602 532.78 617.69 532.719 615.571C532.568 610.387 531.779 605.243 531.87 600.043C531.956 595.158 531.9 590.353 531.637 585.472C531.374 580.591 531.222 575.645 531.212 570.723C531.926 566.115 532.368 561.469 532.537 556.809C532.456 556.121 531.824 555.484 531.87 554.786C531.915 554.088 532.699 553.552 532.831 552.834C533.008 551.853 532.431 550.811 532.684 549.759C532.999 548.975 533.273 548.174 533.503 547.361C534.1 543.265 533.948 538.869 534.247 534.717C534.378 532.845 534.894 531.176 534.904 529.209C534.87 526.556 535.087 523.906 535.552 521.293C535.941 519.27 536.058 517.202 536.386 515.169C537.08 513.049 537.621 510.882 538.005 508.684C538.005 507.369 536.887 506.434 537.029 505.331C537.11 504.684 538.005 503.9 538.222 503.202C538.465 502.408 538.571 501.432 538.728 500.627C539.294 497.8 539.967 494.836 540.792 491.781C541.297 489.925 541.151 488.084 541.641 486.218C541.897 484.583 542.017 482.93 542 481.276C541.965 480.315 542.052 479.353 542.258 478.413C542.537 477.594 543.189 476.962 543.447 476.122C544.034 474.21 542.673 472.511 543.447 470.63C543.826 469.689 544.752 469.112 545.146 468.202C545.397 467.342 545.51 466.447 545.48 465.551C545.381 463.734 545.66 461.915 546.3 460.21C547.209 458.569 547.756 456.751 547.903 454.88C547.82 452.679 547.966 450.475 548.338 448.304C548.884 446.625 550.422 445.325 550.037 443.429C549.845 442.478 549.268 442.351 549.425 441.274C549.562 440.333 550.437 439.64 550.654 438.745C550.857 437.992 550.604 437.182 550.735 436.388C550.897 435.402 551.367 434.299 551.605 433.298C552.111 431.133 552.141 428.898 552.662 426.768C552.89 425.823 553.451 425.034 553.674 424.128C553.896 423.223 553.78 422.226 553.987 421.291C554.079 420.384 554.35 419.504 554.784 418.703C555.218 417.902 555.807 417.195 556.516 416.622C558.757 415.905 561.088 415.509 563.44 415.449C566.111 415.029 568.781 414.64 571.457 414.255C575.865 413.314 580.323 412.625 584.81 412.192C589.227 411.441 593.537 410.151 597.641 408.353C601.968 406.364 606.7 405.416 611.459 405.586C605.424 408.503 598.99 410.508 592.366 411.534C589.008 412.419 585.695 413.456 582.362 414.417C581.04 414.748 579.669 414.836 578.315 414.675C577.911 414.675 575.908 414.913 575.822 415.56C581.28 415.228 586.698 414.402 592.007 413.092C597.849 411.742 603.731 410.432 609.588 409.162C611.832 408.482 614.029 407.652 616.163 406.679C618.646 405.814 621.372 405.824 623.891 404.964C626.314 404.135 628.757 403.245 631.134 402.294C633.47 401.005 635.984 400.069 638.594 399.517M646.439 360.435L645.24 361.548C644.375 360.162 643.182 359.141 643.217 357.365L646.454 360.435M621.367 379.099C616.396 381.122 611.909 384.156 606.816 386.058C601.723 387.96 596.417 389.725 591.238 391.622C580.812 395.323 570.196 398.463 559.435 401.029C559.602 398.222 560.922 395.865 561.301 393.185C561.641 391.352 562.356 389.61 563.4 388.066C564.28 385.911 564.99 383.691 565.524 381.425C566.419 378.932 567.547 376.706 568.266 374.162C569.227 371.59 570.344 369.079 571.609 366.641C572.479 364.088 573.492 361.585 574.643 359.146C577.243 354.497 580.121 350.042 582.852 345.373C585.349 341.262 588.088 337.303 591.056 333.518C593.898 329.362 597.477 325.762 601.617 322.896C602.906 322.143 602.76 322.097 604.211 322.173C605.826 322.355 607.395 322.824 608.844 323.559C610.483 324.571 611.409 326.528 613.027 327.767C613.897 328.388 614.713 329.081 615.465 329.841C615.713 330.109 615.414 330.776 615.637 330.969C616.239 331.474 618.065 330.422 618.065 331.818C618.065 332.759 616.648 332.208 616.704 332.526C617.129 334.944 621.474 334.458 622.945 335.344C625.516 337.123 627.805 339.28 629.733 341.742C630.618 342.507 631.575 343.184 632.591 343.765C633.897 344.873 635.099 346.099 636.182 347.427C637.047 348.383 638.842 349.768 639.085 351.134C639.419 353.056 638.807 352.095 637.679 352.925C637.446 353.096 641.543 356.915 641.836 357.477C642.378 358.734 642.844 360.023 643.232 361.336C643.94 363.323 643.151 363.865 641.629 365.245C635.728 371.014 628.87 375.715 621.362 379.139M880.443 673.098C880.362 671.298 881.014 671.045 878.981 670.498C878.339 670.327 877.413 670.595 876.842 670.165C875.79 669.376 876.68 668.875 876.209 668C875.542 666.751 873.837 667.368 872.487 666.806C870.676 666.053 869.548 664.277 867.935 663.266C865.78 661.9 863.853 662.538 861.506 662.082C859.181 661.315 856.938 660.319 854.81 659.108C853.348 658.517 851.598 658.754 850.076 658.299C849.332 658.191 848.651 657.822 848.154 657.257C847.805 656.681 848.316 655.841 847.684 655.502C846.833 655.585 845.989 655.72 845.155 655.907C844.224 655.907 843.04 656.013 842.15 655.957C839.793 655.744 837.42 655.776 835.069 656.053C830.061 657.413 825.749 660.612 822.996 665.011C820.123 668.783 816.321 671.745 811.96 673.609C811.065 674.024 809.826 674.014 809.001 674.454C808.293 674.833 807.884 675.582 807.145 675.971C806.21 676.477 805.056 676.431 804.111 676.861C803.165 677.291 802.118 677.979 801.076 678.475C798.922 679.463 796.676 680.234 794.369 680.776C792.655 681.241 793.449 681.666 792.27 682.632C791.415 683.335 790.702 683.183 789.65 683.229C785.382 683.912 781.214 685.116 777.238 686.815C775.175 687.447 772.717 687.826 770.562 688.282C768.639 688.895 766.67 689.356 764.675 689.662C760.568 689.9 757.427 691.509 753.669 691.827C752.86 691.893 752.42 691.534 751.646 691.504C750.872 691.473 749.835 691.918 748.986 692.009C745.807 692.187 742.619 692.143 739.447 691.878C736.837 691.716 734.389 690.826 731.784 690.553C729.573 690.498 727.372 690.237 725.209 689.774C723.373 689.227 721.669 688.256 719.863 687.705C717.713 687.177 715.628 686.417 713.642 685.439C709.285 682.506 705.932 678.308 704.032 673.412C703.051 671.181 702.268 668.87 701.69 666.503C701.564 665.159 701.352 663.824 701.058 662.507C700.643 661.324 699.576 660.509 699.141 659.351C698.357 657.242 698.013 654.855 697.386 652.736C696.673 650.353 695.059 648.325 694.164 645.999C693.416 644.041 692.728 642.19 692.141 640.228C691.484 638.129 689.162 637.552 687.908 635.716C686.289 633.344 686.567 631.058 685.515 628.635C684.61 626.546 683.138 625.378 681.186 626.45C680.372 626.895 679.714 627.765 678.738 627.887C677.595 628.028 676.583 627.229 675.45 627.138C674.29 627.165 673.15 627.447 672.11 627.962C671.07 628.478 670.156 629.215 669.432 630.122C668.73 630.928 667.85 631.558 666.861 631.963C665.872 632.367 664.802 632.533 663.737 632.449C662.677 632.326 661.605 632.384 660.565 632.621C658.992 633.056 659.048 633.561 658.006 634.507C657.156 635.271 655.983 635.215 654.971 635.65C653.96 636.085 653.272 636.879 652.265 637.238C650.95 637.714 650.161 637.481 649.028 638.488C648.294 639.314 647.646 640.214 647.096 641.173C644.455 644.019 642.673 647.554 641.958 651.37C641.623 653.991 641.535 656.638 641.695 659.275C641.517 661.526 641.578 663.789 641.877 666.027C642.383 667.767 642.979 668.769 641.659 670.306C640.284 671.442 638.845 672.5 637.35 673.472C635.852 675.205 634.499 677.057 633.304 679.011C631.773 680.761 630.775 682.913 630.426 685.212C630.057 687.184 630.026 688.798 629.551 690.669C628.974 692.935 630.396 695.12 629.551 697.274C628.505 699.317 628.075 701.618 628.312 703.9C628.448 704.912 629.399 706.768 627.887 706.677C627.194 706.636 627.255 705.665 626.875 705.665C625.307 705.615 627.806 708.558 628.236 708.897C629.617 709.964 631.746 710.298 632.722 711.977C633.653 713.571 631.908 716.413 634.7 716.312C636.43 716.251 637.977 714.031 639.009 712.842C639.441 712.222 639.951 711.659 640.526 711.168C641.538 710.455 641.614 711.517 642.044 710.212C642.398 709.17 641.457 708.796 642.317 707.683C642.974 706.839 644.026 706.904 644.846 706.414C646.429 705.463 647.435 703.708 649.064 702.808C650.784 701.857 653.211 702.039 654.096 699.834C654.496 698.822 653.742 697.027 654.602 696.243C655.305 695.615 656.195 696.288 656.959 696.061C657.91 695.777 658.092 694.907 658.947 694.543C660.525 693.901 663.064 696 662.953 692.859C662.862 690.254 661.203 690.178 663.049 687.69C663.769 686.887 664.285 685.924 664.555 684.88C664.824 683.836 664.838 682.742 664.596 681.691C664.681 679.087 665.43 676.546 666.771 674.312C667.252 673.093 667.51 670.418 668.461 669.467C669.801 668.136 671.141 672.304 671.763 673.563C673.695 677.488 674.247 681.297 675.911 685.394C676.69 687.316 677.691 689.167 678.338 691.144C679.102 693.496 680.908 695.353 681.626 697.75C681.899 698.67 681.626 699.869 682.106 700.673C682.289 700.972 682.804 701.098 682.966 701.397C683.25 701.902 683.3 702.479 683.583 703.081C684.409 705.131 685.537 707.046 686.932 708.761C690.05 712.476 693.537 715.866 697.341 718.876C699.348 719.814 701.277 720.913 703.106 722.164C703.603 722.758 704.191 723.27 704.846 723.681C705.711 724.111 706.475 723.894 707.335 724.187C707.653 724.303 707.77 724.951 708.098 725.087C708.755 725.277 709.439 725.352 710.122 725.31C711.36 725.278 712.593 725.47 713.763 725.876C716.292 726.888 718.77 726.979 721.284 727.818C722.189 728.122 723.241 728.759 724.101 728.997C725.619 729.412 726.797 728.608 728.249 728.329C730.725 728.061 733.221 728.022 735.704 728.213C736.942 728.154 738.174 728.02 739.396 727.813C740.792 727.647 741.804 728.289 743.098 728.238C744.044 728.198 744.757 727.636 745.754 727.566C747.114 727.655 748.479 727.528 749.8 727.191C751.904 726.463 753.957 725.674 756.067 724.931C758.176 724.187 760.563 724.121 762.576 723.206C764.346 722.397 765.049 721.527 766.9 721.633C768.131 721.771 769.373 721.506 770.441 720.879C771.184 720.601 771.951 720.392 772.732 720.252C776.662 719.175 780.496 717.652 784.421 716.504C788.878 715.394 793.189 713.761 797.262 711.639C801.622 709.11 806.842 708.25 811.009 705.443C814.52 703.081 818.753 702.089 822.202 699.53C824.096 698.471 826.069 697.561 828.105 696.809C830.128 695.712 832.212 694.786 834.124 693.552C836.116 692.293 838.069 691.109 840.061 689.824C842.54 688.236 843.915 688.868 845.939 690.907C847.542 692.53 849.231 693.941 850.804 695.575C851.961 696.838 852.881 698.3 853.52 699.889C854.491 701.746 855.963 703.268 856.944 705.094C858.263 707.221 859.736 709.25 861.35 711.163C862.601 712.747 863.678 714.462 864.561 716.277C865.17 718.462 866.136 720.531 867.419 722.402C869.664 725.253 871.754 728.223 873.681 731.298C876.306 735.203 875.542 740.559 879.305 743.993C880.907 745.32 882.305 746.874 883.457 748.606C884.475 750.559 885.659 752.421 886.998 754.17C887.489 754.615 888.01 755.027 888.556 755.404C889.312 756.171 889.962 757.037 890.488 757.978C892.005 760.143 893.558 761.994 894.878 764.321C895.96 766.237 897.655 767.123 898.848 768.873C899.389 769.672 899.607 770.673 900.138 771.467C900.927 772.641 901.655 772.671 902.92 773.354C904.634 774.318 905.949 775.859 906.632 777.704C907.462 779.469 909.115 780.055 910.648 781.618C912.327 783.328 914.487 784.056 916.247 785.548C918.089 787.033 919.783 788.693 921.305 790.505C921.649 790.94 924.233 793.418 924.339 791.294C924.4 789.888 921.249 788.836 920.496 787.956C917.461 784.415 923.206 788.052 923.687 787.607C924.648 786.701 922.842 783.707 922.296 783.146C920.607 781.421 918.548 780.035 916.854 778.3C913.819 775.159 910.38 772.61 907.674 769.257C906.794 768.165 903.162 765.828 903.628 764.27C904.3 761.938 906.399 765.742 906.839 766.293C908.065 768.254 909.558 770.035 911.275 771.584C911.781 771.922 912.322 771.811 912.884 772.261C913.86 773.04 913.526 773.779 914.199 774.618C915.104 775.721 916.889 775.453 917.987 776.353C919.16 777.319 919.975 779.823 921.891 779.701C925.103 779.504 920.167 774.502 920.814 772.722C920.54 772.695 920.263 772.726 920.002 772.813C919.74 772.9 919.5 773.041 919.297 773.227C919.873 770.592 913.045 765.641 914.239 764.214C914.239 764.214 916.262 763.779 916.601 764.103C917.107 764.609 916.697 765.899 916.935 766.546C917.554 767.658 918.378 768.643 919.363 769.449C921.384 771.432 923.006 773.784 924.142 776.378C924.277 777.087 924.463 777.785 924.699 778.467C924.896 778.847 925.938 779.261 925.831 779.808C925.796 779.99 922.043 780.131 924.284 781.912C925.72 783.05 925.22 780.541 926.504 780.652C927.237 781.286 927.872 782.024 928.391 782.842C928.31 784.137 927.47 782.923 926.939 783.045C926.12 783.242 926.11 782.706 926.605 784.183C926.844 784.947 927.311 785.62 927.944 786.112C928.577 786.603 929.346 786.888 930.146 786.929C930.459 786.929 930.454 786.13 930.985 786.337C931.405 786.499 931.527 787 931.87 787.237C933.105 788.178 934.403 789.031 935.755 789.792C936.291 790.075 938.147 791.309 938.82 790.464C939.23 789.959 937.641 788.553 937.227 788.133C936.008 786.894 933.975 785.836 933.221 784.466C932.602 783.26 932.094 782.001 931.704 780.703C931.648 779.772 932.771 779.297 932.457 778.417C932.321 778.047 931.248 777.87 930.94 777.552C930.55 777.132 930.581 776.343 930.161 775.913C929.625 775.362 928.73 775.493 928.335 775.114C927.705 774.193 927.183 773.204 926.777 772.165C926.696 772.008 925.26 768.529 926.555 769.308C926.342 769.181 927.061 770.709 927.015 770.613C927.707 771.617 928.562 772.499 929.544 773.222C930.815 774.411 932.014 775.674 933.135 777.006C934.253 778.169 935.618 778.26 936.766 779.271C937.217 779.666 937.414 780.349 937.849 780.723C938.188 781.011 938.678 781.204 938.967 781.436C939.972 782.248 940.888 783.165 941.698 784.172C942.639 785.321 945.122 788.816 946.862 788.972C947.529 787.779 945.532 787.192 946.088 785.983C946.943 784.122 945.744 783.925 944.571 782.519C942.988 780.622 944.844 781.001 945.006 778.978C945.188 776.727 942.254 774.689 941.202 772.868C939.988 770.779 938.395 768.999 937.06 766.991C934.263 762.778 930.869 758.969 928.067 754.761C924.883 750.026 922.002 745.093 919.444 739.993C918.447 738.049 917.353 736.156 916.166 734.323C915.534 733.311 915.397 732.229 914.881 731.207C914.365 730.186 913.576 729.821 913.01 729.002C912.31 727.563 911.826 726.03 911.574 724.45C910.884 722.123 909.831 719.919 908.453 717.92C905.616 713.95 904.159 709.211 901.579 704.932C899.106 700.82 896.623 696.748 893.816 692.935C892.379 690.977 891.843 688.742 890.199 686.82C888.871 685.373 887.695 683.793 886.689 682.106C885.784 680.467 885.678 678.373 884.009 677.256C882.339 676.138 880.564 675.445 880.468 673.123" fill="#E45D50"/>
</svg>
